<svg width="317" height="317" viewBox="0 0 317 317" fill="none" xmlns="http://www.w3.org/2000/svg">
<g filter="url(#filter0_d_169_35)">
<rect x="4" width="309" height="309" rx="50" fill="url(#paint0_linear_169_35)"/>
</g>
<path d="M216.5 54.375C224.439 54.375 230.875 60.8109 230.875 68.75V241.25C230.875 249.189 224.439 255.625 216.5 255.625H101.5C93.5609 255.625 87.125 249.189 87.125 241.25V68.75C87.125 60.8109 93.5609 54.375 101.5 54.375H216.5ZM101.5 40C85.6218 40 72.75 52.8718 72.75 68.75V241.25C72.75 257.128 85.6218 270 101.5 270H216.5C232.378 270 245.25 257.128 245.25 241.25V68.75C245.25 52.8718 232.378 40 216.5 40H101.5Z" fill="#F8F9FA"/>
<path d="M101.5 75.9375C101.5 71.968 104.718 68.75 108.688 68.75H209.312C213.282 68.75 216.5 71.968 216.5 75.9375V104.688C216.5 108.657 213.282 111.875 209.312 111.875H108.688C104.718 111.875 101.5 108.657 101.5 104.688V75.9375Z" fill="#F8F9FA"/>
<path d="M101.5 133.438C101.5 129.468 104.718 126.25 108.688 126.25H123.062C127.032 126.25 130.25 129.468 130.25 133.438V147.812C130.25 151.782 127.032 155 123.062 155H108.688C104.718 155 101.5 151.782 101.5 147.812V133.438Z" fill="#F8F9FA"/>
<path d="M101.5 176.562C101.5 172.593 104.718 169.375 108.688 169.375H123.062C127.032 169.375 130.25 172.593 130.25 176.562V190.938C130.25 194.907 127.032 198.125 123.062 198.125H108.688C104.718 198.125 101.5 194.907 101.5 190.938V176.562Z" fill="#F8F9FA"/>
<path d="M101.5 219.688C101.5 215.718 104.718 212.5 108.688 212.5H123.062C127.032 212.5 130.25 215.718 130.25 219.688V234.062C130.25 238.032 127.032 241.25 123.062 241.25H108.688C104.718 241.25 101.5 238.032 101.5 234.062V219.688Z" fill="#F8F9FA"/>
<path d="M144.625 133.438C144.625 129.468 147.843 126.25 151.812 126.25H166.188C170.157 126.25 173.375 129.468 173.375 133.438V147.812C173.375 151.782 170.157 155 166.188 155H151.812C147.843 155 144.625 151.782 144.625 147.812V133.438Z" fill="#F8F9FA"/>
<path d="M144.625 176.562C144.625 172.593 147.843 169.375 151.812 169.375H166.188C170.157 169.375 173.375 172.593 173.375 176.562V190.938C173.375 194.907 170.157 198.125 166.188 198.125H151.812C147.843 198.125 144.625 194.907 144.625 190.938V176.562Z" fill="#F8F9FA"/>
<path d="M144.625 219.688C144.625 215.718 147.843 212.5 151.812 212.5H166.188C170.157 212.5 173.375 215.718 173.375 219.688V234.062C173.375 238.032 170.157 241.25 166.188 241.25H151.812C147.843 241.25 144.625 238.032 144.625 234.062V219.688Z" fill="#F8F9FA"/>
<path d="M187.75 133.438C187.75 129.468 190.968 126.25 194.938 126.25H209.312C213.282 126.25 216.5 129.468 216.5 133.438V147.812C216.5 151.782 213.282 155 209.312 155H194.938C190.968 155 187.75 151.782 187.75 147.812V133.438Z" fill="#F8F9FA"/>
<path d="M187.75 176.562C187.75 172.593 190.968 169.375 194.938 169.375H209.312C213.282 169.375 216.5 172.593 216.5 176.562V234.062C216.5 238.032 213.282 241.25 209.312 241.25H194.938C190.968 241.25 187.75 238.032 187.75 234.062V176.562Z" fill="#F8F9FA"/>
<defs>
<filter id="filter0_d_169_35" x="0" y="0" width="317" height="317" filterUnits="userSpaceOnUse" color-interpolation-filters="sRGB">
<feFlood flood-opacity="0" result="BackgroundImageFix"/>
<feColorMatrix in="SourceAlpha" type="matrix" values="0 0 0 0 0 0 0 0 0 0 0 0 0 0 0 0 0 0 127 0" result="hardAlpha"/>
<feOffset dy="4"/>
<feGaussianBlur stdDeviation="2"/>
<feComposite in2="hardAlpha" operator="out"/>
<feColorMatrix type="matrix" values="0 0 0 0 0 0 0 0 0 0 0 0 0 0 0 0 0 0 0.25 0"/>
<feBlend mode="normal" in2="BackgroundImageFix" result="effect1_dropShadow_169_35"/>
<feBlend mode="normal" in="SourceGraphic" in2="effect1_dropShadow_169_35" result="shape"/>
</filter>
<linearGradient id="paint0_linear_169_35" x1="4" y1="0" x2="313" y2="309" gradientUnits="userSpaceOnUse">
<stop stop-color="#FA7E14"/>
<stop offset="1" stop-color="#D63384"/>
</linearGradient>
</defs>
</svg>
