<svg width="309" height="309" viewBox="0 0 309 309" fill="none" xmlns="http://www.w3.org/2000/svg">
<circle cx="154.5" cy="154.5" r="154.5" fill="#D63384"/>
<g filter="url(#filter0_d_171_112)">
<path d="M100.757 230C107.924 220.667 117.09 216 128.257 216C133.59 216 142.007 217.5 153.507 220.5C165.174 223.5 174.59 225 181.757 225C188.924 225 194.924 223.25 199.757 219.75C204.757 216.083 207.257 211.5 207.257 206C207.257 200.333 205.757 196.083 202.757 193.25C199.924 190.25 196.257 188.75 191.757 188.75C187.424 188.75 184.007 189.833 181.507 192C179.174 194 178.007 196.333 178.007 199C178.007 201.5 178.34 203.333 179.007 204.5C179.84 205.667 180.257 206.333 180.257 206.5C180.257 207.5 179.674 208 178.507 208C177.34 208 176.174 207.25 175.007 205.75C174.007 204.083 173.507 201.667 173.507 198.5C173.507 195.167 175.174 192 178.507 189C182.007 185.833 186.674 184.25 192.507 184.25C198.34 184.25 203.007 186.167 206.507 190C210.007 193.833 211.757 199 211.757 205.5C211.757 216 207.757 225.167 199.757 233C191.757 240.667 182.007 244.5 170.507 244.5C166.174 244.5 157.924 243.083 145.757 240.25C133.757 237.417 124.007 236 116.507 236C109.007 236 102.507 238.083 97.0068 242.25C96.3402 239.083 96.0068 235.25 96.0068 230.75C96.0068 226.25 97.5902 221.083 100.757 215.25C103.924 209.417 108.007 204.083 113.007 199.25C118.174 194.25 123.757 189.25 129.757 184.25C135.924 179.083 142.09 173.833 148.257 168.5C154.424 163 160.007 157.333 165.007 151.5C176.507 138.667 182.257 124.417 182.257 108.75C182.257 98.5833 179.507 89.6667 174.007 82C168.507 74.3333 159.757 70.5 147.757 70.5C135.924 70.5 126.174 74.5 118.507 82.5C111.007 90.5 107.257 99.9167 107.257 110.75C107.257 117.917 109.007 123.667 112.507 128C116.174 132.167 120.757 134.25 126.257 134.25C131.757 134.25 135.84 132.917 138.507 130.25C141.174 127.417 142.507 124.333 142.507 121C142.507 117.667 141.34 114.75 139.007 112.25C136.674 109.583 135.507 108 135.507 107.5C135.507 106.333 136.424 105.75 138.257 105.75C140.257 105.75 142.34 107.333 144.507 110.5C146.674 113.5 147.757 117.083 147.757 121.25C147.757 125.25 145.84 129.083 142.007 132.75C138.34 136.417 133.09 138.25 126.257 138.25C119.59 138.25 113.924 135.833 109.257 131C104.757 126 102.507 119.167 102.507 110.5C102.507 97.6667 107.34 87 117.007 78.5C126.84 69.8333 139.34 65.5 154.507 65.5C169.84 65.5 182.34 69.5833 192.007 77.75C201.674 85.9167 206.507 95.9167 206.507 107.75C206.507 116.25 203.84 124.833 198.507 133.5C193.34 142 186.84 149.667 179.007 156.5C171.174 163.167 162.674 170 153.507 177C144.507 184 136.09 190.333 128.257 196C120.424 201.5 113.84 207.333 108.507 213.5C103.34 219.5 100.757 225 100.757 230Z" fill="#F8F9FA"/>
</g>
<defs>
<filter id="filter0_d_171_112" x="92.0068" y="65.5" width="123.75" height="187" filterUnits="userSpaceOnUse" color-interpolation-filters="sRGB">
<feFlood flood-opacity="0" result="BackgroundImageFix"/>
<feColorMatrix in="SourceAlpha" type="matrix" values="0 0 0 0 0 0 0 0 0 0 0 0 0 0 0 0 0 0 127 0" result="hardAlpha"/>
<feOffset dy="4"/>
<feGaussianBlur stdDeviation="2"/>
<feComposite in2="hardAlpha" operator="out"/>
<feColorMatrix type="matrix" values="0 0 0 0 0 0 0 0 0 0 0 0 0 0 0 0 0 0 0.25 0"/>
<feBlend mode="normal" in2="BackgroundImageFix" result="effect1_dropShadow_171_112"/>
<feBlend mode="normal" in="SourceGraphic" in2="effect1_dropShadow_171_112" result="shape"/>
</filter>
</defs>
</svg>
